<svg id="visual" viewBox="0 0 960 540" width="960" height="540" xmlns="http://www.w3.org/2000/svg" xmlns:xlink="http://www.w3.org/1999/xlink" version="1.1"><path d="M0 17L40 17C80 17 160 17 240 17C320 17 400 17 480 18C560 19 640 21 720 29.2C800 37.3 880 51.7 920 58.8L960 66L960 0L920 0C880 0 800 0 720 0C640 0 560 0 480 0C400 0 320 0 240 0C160 0 80 0 40 0L0 0Z" fill="#e8e2e2"></path><path d="M0 82L40 84.7C80 87.3 160 92.7 240 92.7C320 92.7 400 87.3 480 77.5C560 67.7 640 53.3 720 57.8C800 62.3 880 85.7 920 97.3L960 109L960 64L920 56.8C880 49.7 800 35.3 720 27.2C640 19 560 17 480 16C400 15 320 15 240 15C160 15 80 15 40 15L0 15Z" fill="#d9cacc"></path><path d="M0 195L40 190.5C80 186 160 177 240 166.3C320 155.7 400 143.3 480 131.7C560 120 640 109 720 118C800 127 880 156 920 170.5L960 185L960 107L920 95.3C880 83.7 800 60.3 720 55.8C640 51.3 560 65.7 480 75.5C400 85.3 320 90.7 240 90.7C160 90.7 80 85.3 40 82.7L0 80Z" fill="#c9b2ba"></path><path d="M0 201L40 200C80 199 160 197 240 191.5C320 186 400 177 480 167.2C560 157.3 640 146.7 720 152.2C800 157.7 880 179.3 920 190.2L960 201L960 183L920 168.5C880 154 800 125 720 116C640 107 560 118 480 129.7C400 141.3 320 153.7 240 164.3C160 175 80 184 40 188.5L0 193Z" fill="#b69bab"></path><path d="M0 228L40 240.5C80 253 160 278 240 284.3C320 290.7 400 278.3 480 257.7C560 237 640 208 720 199C800 190 880 201 920 206.5L960 212L960 199L920 188.2C880 177.3 800 155.7 720 150.2C640 144.7 560 155.3 480 165.2C400 175 320 184 240 189.5C160 195 80 197 40 198L0 199Z" fill="#a0869e"></path><path d="M0 276L40 286C80 296 160 316 240 323.3C320 330.7 400 325.3 480 306.3C560 287.3 640 254.7 720 239.3C800 224 880 226 920 227L960 228L960 210L920 204.5C880 199 800 188 720 197C640 206 560 235 480 255.7C400 276.3 320 288.7 240 282.3C160 276 80 251 40 238.5L0 226Z" fill="#877293"></path><path d="M0 336L40 344C80 352 160 368 240 368.8C320 369.7 400 355.3 480 333.8C560 312.3 640 283.7 720 274.7C800 265.7 880 276.3 920 281.7L960 287L960 226L920 225C880 224 800 222 720 237.3C640 252.7 560 285.3 480 304.3C400 323.3 320 328.7 240 321.3C160 314 80 294 40 284L0 274Z" fill="#6a6089"></path><path d="M0 487L40 494.2C80 501.3 160 515.7 240 508.5C320 501.3 400 472.7 480 470C560 467.3 640 490.7 720 492.5C800 494.3 880 474.7 920 464.8L960 455L960 285L920 279.7C880 274.3 800 263.7 720 272.7C640 281.7 560 310.3 480 331.8C400 353.3 320 367.7 240 366.8C160 366 80 350 40 342L0 334Z" fill="#48507e"></path><path d="M0 541L40 541C80 541 160 541 240 541C320 541 400 541 480 541C560 541 640 541 720 541C800 541 880 541 920 541L960 541L960 453L920 462.8C880 472.7 800 492.3 720 490.5C640 488.7 560 465.3 480 468C400 470.7 320 499.3 240 506.5C160 513.7 80 499.3 40 492.2L0 485Z" fill="#144272"></path></svg>